<svg width="14" height="16" viewBox="0 0 14 16" fill="none" xmlns="http://www.w3.org/2000/svg">
<path d="M13.89 10.36C13.89 11.2785 13.1315 12.024 12.1974 12.024H1.80256C0.867893 12.024 0.109985 11.2794 0.109985 10.36C0.109985 9.485 0.797633 8.76658 1.66999 8.70089V5.75181C1.66999 2.85278 4.05596 0.503998 6.99999 0.503998C9.94404 0.503998 12.33 2.85333 12.33 5.75181V8.70091C13.2012 8.76664 13.89 9.48474 13.89 10.36ZM12.1994 9.976C11.553 9.976 11.03 9.46126 11.03 8.82355V5.75181C11.03 3.56025 9.22606 1.784 6.99999 1.784C4.77387 1.784 2.96999 3.55976 2.96999 5.75181V8.82355C2.96999 9.45961 2.44585 9.976 1.80053 9.976C1.58528 9.976 1.40999 10.1486 1.40999 10.36C1.40999 10.5719 1.58521 10.744 1.80256 10.744H12.1974C12.4141 10.744 12.59 10.5711 12.59 10.36C12.59 10.1489 12.414 9.976 12.1994 9.976ZM4.52999 12.664H5.82999C5.82999 13.3002 6.35381 13.816 6.99999 13.816C7.64616 13.816 8.16999 13.3002 8.16999 12.664H9.46999C9.46999 14.0072 8.36413 15.096 6.99999 15.096C5.63584 15.096 4.52999 14.0072 4.52999 12.664Z" fill="black"/>
</svg>
