<svg width="100" height="80" viewBox="0 0 100 80" fill="none" xmlns="http://www.w3.org/2000/svg">
<path d="M65.58 0.279999H34.42C15.41 0.279999 0 14.83 0 32.77C0 45.86 8.2 57.13 20 62.28V74.12C20 77.76 21.44 79.72 23.63 79.72C25.3777 79.552 27.0101 78.773 28.24 77.52L42.24 65.26H65.58C84.58 65.26 100 50.71 100 32.77C100 14.83 84.59 0.279999 65.58 0.279999ZM65.58 59.28H40L38.3 60.76L26 71.51V58.35L22.4 56.78C12.44 52.43 6 43 6 32.77C6 18.16 18.75 6.28 34.42 6.28H65.58C81.25 6.28 94 18.16 94 32.77C94 47.38 81.25 59.26 65.58 59.26V59.28Z" fill="black"/>
</svg>
