<svg width="25" height="23" viewBox="0 0 25 23" fill="none" xmlns="http://www.w3.org/2000/svg">
<path d="M22.3191 16.0333C21.4754 16.0333 20.6316 16.0333 19.7879 16.0333C18.1979 16.0333 16.6054 16.0333 15.0154 16.0333C14.0557 16.0333 13.0933 16.0306 12.1335 16.0333C11.556 16.0333 11.0076 16.1741 10.4935 16.4317C10.148 16.6044 9.84482 16.8541 9.5706 17.125C9.17773 17.5128 8.78486 17.9006 8.39199 18.2884C7.44541 19.2208 6.50146 20.1558 5.55488 21.0881C5.52851 21.112 5.50478 21.1386 5.47841 21.1625C5.54169 21.1147 5.60234 21.0669 5.66562 21.0164C5.63925 21.035 5.61552 21.0509 5.58652 21.0642C5.66035 21.0323 5.73417 21.0005 5.808 20.9712C5.779 20.9819 5.75263 20.9898 5.72363 20.9951C5.80537 20.9845 5.8871 20.9739 5.96884 20.9606C5.93984 20.9633 5.91347 20.9633 5.88447 20.9606C5.96621 20.9712 6.04794 20.9819 6.12968 20.9951C6.09013 20.9898 6.05849 20.9792 6.02158 20.9633C6.0954 20.9951 6.16923 21.027 6.24306 21.0562C6.21669 21.043 6.1956 21.0297 6.17187 21.0111C6.23515 21.0589 6.2958 21.1067 6.35908 21.1572C6.33798 21.1386 6.31953 21.1173 6.30107 21.0961C6.34853 21.1598 6.39599 21.2209 6.44609 21.2847C6.43027 21.2581 6.41708 21.2342 6.4039 21.2076C6.43554 21.282 6.46718 21.3564 6.49619 21.4308C6.48564 21.3989 6.48037 21.3723 6.47509 21.3405C6.48564 21.4228 6.49619 21.5051 6.50937 21.5875C6.49355 21.2422 6.50673 20.8942 6.50673 20.5462C6.50673 19.938 6.50673 19.327 6.50673 18.7187C6.50673 18.2831 6.5621 17.7598 6.40917 17.3455C6.29052 17.0241 6.1165 16.7186 5.84755 16.5008C5.50742 16.2245 5.15146 16.0784 4.7164 16.0359C4.54501 16.02 4.36572 16.0306 4.19433 16.0306C3.8621 16.0306 3.52724 16.0306 3.19501 16.0306C2.9788 16.0306 2.75732 16.0439 2.54374 16.0226C2.62548 16.0333 2.70722 16.0439 2.78896 16.0572C2.68349 16.0439 2.58066 16.0173 2.48046 15.9775C2.55429 16.0094 2.62812 16.0412 2.70195 16.0705C2.60439 16.0306 2.51738 15.9775 2.43037 15.9164C2.49365 15.9642 2.55429 16.012 2.61757 16.0625C2.52529 15.9908 2.44619 15.9111 2.37499 15.8181C2.42245 15.8819 2.46992 15.943 2.52001 16.0067C2.45937 15.9217 2.40663 15.8314 2.36708 15.7331C2.39872 15.8075 2.43036 15.8819 2.45937 15.9562C2.41982 15.8553 2.39345 15.7517 2.38027 15.6455C2.39081 15.7278 2.40136 15.8101 2.41454 15.8925C2.39872 15.7358 2.40663 15.5764 2.40663 15.4223C2.40663 15.1062 2.40663 14.7875 2.40663 14.4714C2.40663 13.4222 2.40663 12.373 2.40663 11.3237C2.40663 10.0408 2.40663 8.75781 2.40663 7.47484C2.40663 6.37515 2.40663 5.27546 2.40663 4.17843C2.40663 3.66312 2.40136 3.14781 2.40663 2.63249C2.40663 2.56609 2.41191 2.50234 2.41982 2.43593C2.40927 2.51827 2.39872 2.60062 2.38554 2.68296C2.40136 2.57671 2.43037 2.47312 2.46728 2.37218C2.43564 2.44656 2.404 2.52093 2.37499 2.59531C2.41982 2.4864 2.47783 2.38546 2.54638 2.29249C2.49892 2.35624 2.45146 2.41734 2.40136 2.48109C2.47255 2.38812 2.55429 2.30843 2.64394 2.23671C2.58066 2.28452 2.52001 2.33234 2.45673 2.38281C2.55165 2.31109 2.64921 2.25531 2.75732 2.21015C2.68349 2.24202 2.60966 2.2739 2.53583 2.30312C2.63603 2.26327 2.73886 2.23671 2.84433 2.22077C2.76259 2.2314 2.68085 2.24202 2.59912 2.25531C2.81796 2.22874 3.04472 2.24202 3.26357 2.24202C3.73027 2.24202 4.19697 2.24202 4.66367 2.24202C5.3624 2.24202 6.06113 2.24202 6.75986 2.24202C7.61679 2.24202 8.47373 2.24202 9.32802 2.24202C10.2667 2.24202 11.208 2.24202 12.1467 2.24202C13.0959 2.24202 14.0451 2.24202 14.9943 2.24202C15.8776 2.24202 16.7609 2.24202 17.6469 2.24202C18.3957 2.24202 19.1419 2.24202 19.8907 2.24202C20.4207 2.24202 20.9507 2.24202 21.4807 2.24202C21.7232 2.24202 21.9632 2.24202 22.2058 2.24202C22.2743 2.24202 22.3429 2.24734 22.4114 2.25531C22.3297 2.24468 22.2479 2.23406 22.1662 2.22077C22.2717 2.23671 22.3745 2.26593 22.4747 2.30312C22.4009 2.27124 22.327 2.23937 22.2532 2.21015C22.3613 2.25531 22.4615 2.31374 22.5538 2.38281C22.4905 2.33499 22.4299 2.28718 22.3666 2.23671C22.4589 2.30843 22.538 2.39077 22.6092 2.48109C22.5617 2.41734 22.5143 2.35624 22.4642 2.29249C22.5353 2.38812 22.5907 2.4864 22.6355 2.59531C22.6039 2.52093 22.5723 2.44656 22.5433 2.37218C22.5828 2.47312 22.6092 2.57671 22.625 2.68296C22.6144 2.60062 22.6039 2.51827 22.5907 2.43593C22.6118 2.60062 22.6039 2.77062 22.6039 2.93531C22.6039 3.24874 22.6039 3.56484 22.6039 3.87827C22.6039 4.92484 22.6039 5.9714 22.6039 7.01796C22.6039 8.30093 22.6039 9.5839 22.6039 10.8669C22.6039 11.9692 22.6039 13.0716 22.6039 14.1712C22.6039 14.6919 22.6092 15.2125 22.6039 15.7358C22.6039 15.7889 22.6013 15.842 22.596 15.8978C22.6065 15.8155 22.6171 15.7331 22.6303 15.6508C22.6171 15.757 22.5907 15.8606 22.5512 15.9616C22.5828 15.8872 22.6144 15.8128 22.6435 15.7384C22.6039 15.8367 22.5512 15.9244 22.4905 16.012C22.538 15.9483 22.5854 15.8872 22.6355 15.8234C22.5644 15.9164 22.4852 15.9961 22.393 16.0678C22.4562 16.02 22.5169 15.9722 22.5802 15.9217C22.4958 15.9828 22.4061 16.0359 22.3086 16.0758C22.3824 16.0439 22.4562 16.012 22.5301 15.9828C22.4299 16.0226 22.327 16.0492 22.2216 16.0625C22.3033 16.0519 22.3851 16.0412 22.4668 16.028C22.4167 16.0306 22.3666 16.0333 22.3191 16.0333C21.8366 16.0412 21.3726 16.4556 21.3963 16.963C21.4174 17.4597 21.8023 17.9006 22.3191 17.8926C23.0442 17.882 23.6612 17.5287 24.0831 16.9444C24.331 16.6017 24.447 16.1555 24.4496 15.7358C24.4522 15.5817 24.4496 15.4276 24.4496 15.2736C24.4496 14.4422 24.4496 13.6081 24.4496 12.7767C24.4496 11.5601 24.4496 10.3436 24.4496 9.12702C24.4496 7.92109 24.4496 6.71249 24.4496 5.50656C24.4496 4.68843 24.4496 3.87031 24.4496 3.05218C24.4496 2.90874 24.4522 2.76531 24.4496 2.62187C24.4443 2.06937 24.2492 1.58859 23.9117 1.16093C23.5188 0.664212 22.8808 0.393275 22.2611 0.374681C21.9526 0.366712 21.6441 0.374681 21.3356 0.374681C20.5473 0.374681 19.7589 0.374681 18.9705 0.374681C17.8684 0.374681 16.7662 0.374681 15.6641 0.374681C14.4116 0.374681 13.1618 0.374681 11.9094 0.374681C10.6886 0.374681 9.46777 0.374681 8.24697 0.374681C7.22392 0.374681 6.20087 0.374681 5.17783 0.374681C4.52392 0.374681 3.87001 0.374681 3.21611 0.374681C3.08163 0.374681 2.94716 0.374681 2.81269 0.374681C2.62285 0.374681 2.43037 0.398587 2.24316 0.441087C1.6499 0.576556 1.07509 1.02015 0.808783 1.57531C0.64267 1.91531 0.553021 2.26062 0.550385 2.64046C0.550385 2.6989 0.550385 2.75734 0.550385 2.81312C0.550385 3.0814 0.550385 3.34968 0.550385 3.61796C0.550385 4.60077 0.550385 5.58359 0.550385 6.56906C0.550385 7.82015 0.550385 9.06859 0.550385 10.3197C0.550385 11.4539 0.550385 12.5908 0.550385 13.725C0.550385 14.3625 0.550385 15 0.550385 15.6375C0.550385 16.2617 0.750775 16.8859 1.22538 17.3136C1.64199 17.6881 2.15087 17.8926 2.70986 17.8953C2.92607 17.8953 3.13964 17.8953 3.35585 17.8953C3.64589 17.8953 3.93857 17.8953 4.22861 17.8953C4.39999 17.8953 4.57402 17.8847 4.74277 17.9059C4.66103 17.8953 4.57929 17.8847 4.49755 17.8714C4.57929 17.8847 4.65576 17.9059 4.73222 17.9378C4.65839 17.9059 4.58456 17.8741 4.51074 17.8448C4.58456 17.8767 4.65312 17.9166 4.71904 17.9644C4.65576 17.9166 4.59511 17.8687 4.53183 17.8183C4.60302 17.8741 4.6663 17.9378 4.72431 18.0122C4.67685 17.9484 4.62939 17.8873 4.57929 17.8236C4.62675 17.89 4.6663 17.9591 4.69794 18.0334C4.6663 17.9591 4.63466 17.8847 4.60566 17.8103C4.6373 17.8873 4.65839 17.9644 4.67158 18.0467C4.66103 17.9644 4.65048 17.882 4.6373 17.7997C4.66894 18.0441 4.64785 18.3017 4.64785 18.5487C4.64785 19.0162 4.64785 19.4811 4.64785 19.9486C4.64785 20.3762 4.64785 20.8066 4.64785 21.2342C4.64785 21.3351 4.64521 21.4334 4.64785 21.5344C4.65576 22.1081 5.0038 22.5916 5.54697 22.7695C5.99785 22.9183 6.483 22.7589 6.81523 22.4401C6.86796 22.3897 6.91806 22.3392 6.96816 22.2887C7.20019 22.0603 7.42958 21.8319 7.66162 21.6061C8.34189 20.9367 9.01953 20.2647 9.6998 19.5953C10.1138 19.1862 10.5277 18.7745 10.9417 18.3681C11.0155 18.2964 11.092 18.2273 11.1737 18.1636C11.1104 18.2114 11.0498 18.2592 10.9865 18.3097C11.1685 18.1716 11.3636 18.0573 11.5719 17.967C11.498 17.9989 11.4242 18.0308 11.3504 18.06C11.5613 17.9723 11.7775 17.9139 12.0043 17.882C11.9226 17.8926 11.8408 17.9033 11.7591 17.9166C12.1704 17.8661 12.5976 17.8926 13.0089 17.8926C13.8184 17.8926 14.6278 17.8926 15.4373 17.8926C16.4313 17.8926 17.4254 17.8926 18.4194 17.8926C19.2869 17.8926 20.1544 17.8926 21.0192 17.8926C21.4437 17.8926 21.8683 17.9006 22.2928 17.8926C22.298 17.8926 22.306 17.8926 22.3112 17.8926C22.7937 17.8926 23.2552 17.465 23.2341 16.963C23.2183 16.4609 22.8359 16.0333 22.3191 16.0333Z" fill="black"/>
<path d="M6.1455 12.5164C6.93388 12.5164 7.72226 12.5164 8.51064 12.5164C9.76308 12.5164 11.0155 12.5164 12.268 12.5164C12.5554 12.5164 12.8454 12.5164 13.1328 12.5164C13.6153 12.5164 14.0768 12.0887 14.0557 11.5867C14.0346 11.082 13.6496 10.657 13.1328 10.657C12.3444 10.657 11.556 10.657 10.7677 10.657C9.51523 10.657 8.26279 10.657 7.01035 10.657C6.72294 10.657 6.4329 10.657 6.1455 10.657C5.66298 10.657 5.20156 11.0847 5.22265 11.5867C5.24374 12.0914 5.62871 12.5164 6.1455 12.5164Z" fill="black"/>
<path d="M6.1455 7.54921C6.56474 7.54921 6.98662 7.54921 7.40585 7.54921C8.41572 7.54921 9.42558 7.54921 10.4354 7.54921C11.6615 7.54921 12.8902 7.54921 14.1163 7.54921C15.1736 7.54921 16.231 7.54921 17.2883 7.54921C17.8024 7.54921 18.3166 7.55718 18.8308 7.54921C18.8387 7.54921 18.8466 7.54921 18.8519 7.54921C19.3344 7.54921 19.7958 7.12156 19.7747 6.61952C19.7536 6.11484 19.3687 5.68984 18.8519 5.68984C18.4326 5.68984 18.0107 5.68984 17.5915 5.68984C16.5816 5.68984 15.5718 5.68984 14.5619 5.68984C13.3358 5.68984 12.1071 5.68984 10.8811 5.68984C9.82373 5.68984 8.7664 5.68984 7.70908 5.68984C7.19492 5.68984 6.68076 5.68187 6.1666 5.68984C6.15869 5.68984 6.15078 5.68984 6.1455 5.68984C5.66298 5.68984 5.20156 6.11749 5.22265 6.61952C5.24374 7.12421 5.62871 7.54921 6.1455 7.54921Z" fill="black"/>
</svg>
