<svg width="30" height="26" viewBox="0 0 30 26" fill="none" xmlns="http://www.w3.org/2000/svg">
<path d="M28.77 8.42L25.54 6.34L24.91 7.34L25.54 6.34L16.75 0.689998C16.2483 0.369414 15.6654 0.199066 15.07 0.199066C14.4746 0.199066 13.8917 0.369414 13.39 0.689998L4.46001 6.37L1.24001 8.42C1.12903 8.49024 1.03298 8.58166 0.957336 8.68904C0.881693 8.79641 0.827943 8.91763 0.799156 9.04578C0.770369 9.17393 0.767108 9.3065 0.789561 9.43591C0.812014 9.56532 0.85974 9.68904 0.930014 9.8V9.8C1.00026 9.91098 1.09168 10.007 1.19905 10.0827C1.30643 10.1583 1.42765 10.2121 1.5558 10.2409C1.68395 10.2696 1.81651 10.2729 1.94592 10.2505C2.07533 10.228 2.19905 10.1803 2.31001 10.11L4.00001 9V22.27C4.00001 23.2062 4.37192 24.1041 5.03393 24.7661C5.69593 25.4281 6.5938 25.8 7.53001 25.8H22.46C22.9244 25.8013 23.3845 25.711 23.814 25.5342C24.2434 25.3574 24.6337 25.0975 24.9626 24.7696C25.2914 24.4417 25.5523 24.0521 25.7304 23.6232C25.9084 23.1943 26 22.7344 26 22.27V16.17C26 15.9048 25.8947 15.6504 25.7071 15.4629C25.5196 15.2754 25.2652 15.17 25 15.17C24.7348 15.17 24.4804 15.2754 24.2929 15.4629C24.1054 15.6504 24 15.9048 24 16.17V22.27C24 22.4718 23.9601 22.6715 23.8826 22.8578C23.8051 23.0441 23.6915 23.2132 23.5484 23.3554C23.4052 23.4976 23.2354 23.6101 23.0486 23.6864C22.8618 23.7627 22.6618 23.8013 22.46 23.8H7.53001C7.12423 23.8 6.73507 23.6388 6.44814 23.3519C6.16121 23.0649 6.00001 22.6758 6.00001 22.27V7.76L14.46 2.37C14.641 2.2553 14.8508 2.1944 15.065 2.1944C15.2792 2.1944 15.4891 2.2553 15.67 2.37L24.46 8L27.69 10.08C27.9124 10.2069 28.175 10.2436 28.4237 10.1826C28.6724 10.1216 28.8882 9.96753 29.0267 9.75214C29.1651 9.53675 29.2157 9.27646 29.168 9.02489C29.1202 8.77333 28.9778 8.54967 28.77 8.4V8.42Z" fill="black"/>
<path d="M14 9C13.7348 9 13.4804 9.10536 13.2929 9.29289C13.1054 9.48043 13 9.73478 13 10C13 10.2652 13.1054 10.5196 13.2929 10.7071C13.4804 10.8946 13.7348 11 14 11H16C16.2652 11 16.5196 10.8946 16.7071 10.7071C16.8946 10.5196 17 10.2652 17 10C17 9.73478 16.8946 9.48043 16.7071 9.29289C16.5196 9.10536 16.2652 9 16 9H14Z" fill="black"/>
</svg>
