<svg width="29" height="28" viewBox="0 0 29 28" fill="none" xmlns="http://www.w3.org/2000/svg">
<path d="M22 28H18C17.7348 28 17.4804 27.8946 17.2929 27.7071C17.1053 27.5196 17 27.2652 17 27V19H13V27C13 27.2652 12.8946 27.5196 12.7071 27.7071C12.5196 27.8946 12.2652 28 12 28H7.99999C7.20434 28 6.44128 27.6839 5.87867 27.1213C5.31606 26.5587 4.99999 25.7956 4.99999 25V17H4.55999C3.8526 17.0075 3.1592 16.8028 2.56921 16.4125C1.97923 16.0221 1.51973 15.464 1.24999 14.81C0.990037 14.1787 0.927332 13.4836 1.07013 12.816C1.21293 12.1484 1.55454 11.5397 2.04999 11.07L12.5 0.999999C13.1746 0.359191 14.0695 0.00189972 15 0.00189972C15.9304 0.00189972 16.8254 0.359191 17.5 0.999999L27.94 11.07C28.4354 11.5397 28.777 12.1484 28.9198 12.816C29.0626 13.4836 28.9999 14.1787 28.74 14.81C28.4709 15.4624 28.0129 16.0195 27.4249 16.4097C26.8369 16.7999 26.1457 17.0055 25.44 17H25V25C25 25.7956 24.6839 26.5587 24.1213 27.1213C23.5587 27.6839 22.7956 28 22 28ZM19 26H22C22.2652 26 22.5196 25.8946 22.7071 25.7071C22.8946 25.5196 23 25.2652 23 25V16C23 15.7348 23.1053 15.4804 23.2929 15.2929C23.4804 15.1054 23.7348 15 24 15H25.44C25.7494 15.007 26.0538 14.9212 26.314 14.7536C26.5742 14.5861 26.7783 14.3445 26.9 14.06C27.0082 13.7978 27.0337 13.5088 26.9729 13.2317C26.9121 12.9546 26.768 12.7028 26.56 12.51L16.12 2.44C15.8162 2.15599 15.4159 1.998 15 1.998C14.5841 1.998 14.1838 2.15599 13.88 2.44L3.43999 12.51C3.23194 12.7028 3.08785 12.9546 3.02707 13.2317C2.96629 13.5088 2.99174 13.7978 3.09999 14.06C3.2217 14.3445 3.4258 14.5861 3.686 14.7536C3.94621 14.9212 4.2506 15.007 4.55999 15H5.99999C6.26521 15 6.51956 15.1054 6.7071 15.2929C6.89463 15.4804 6.99999 15.7348 6.99999 16V25C6.99999 25.2652 7.10535 25.5196 7.29288 25.7071C7.48042 25.8946 7.73477 26 7.99999 26H11V18C11 17.7348 11.1053 17.4804 11.2929 17.2929C11.4804 17.1054 11.7348 17 12 17H18C18.2652 17 18.5196 17.1054 18.7071 17.2929C18.8946 17.4804 19 17.7348 19 18V26Z" fill="black"/>
</svg>
