<svg width="17" height="17" viewBox="0 0 17 17" fill="none" xmlns="http://www.w3.org/2000/svg">
<path d="M14.94 6.29945L4.1775 0.960007C3.81651 0.780696 3.41529 0.695939 3.01197 0.713791C2.60865 0.731643 2.21664 0.85151 1.87318 1.062C1.52972 1.27249 1.24622 1.56661 1.04964 1.91642C0.853052 2.26622 0.749906 2.66008 0.75 3.06057V3.13001C0.749935 3.42909 0.807642 3.72542 0.92 4.00297L2.6925 8.40001L0.92 12.797C0.807582 13.0746 0.749873 13.3709 0.75 13.67V13.7394C0.749906 14.1399 0.853052 14.5338 1.04964 14.8836C1.24622 15.2334 1.52972 15.5275 1.87318 15.738C2.21664 15.9485 2.60865 16.0684 3.01197 16.0862C3.41529 16.1041 3.81651 16.0193 4.1775 15.84L14.94 10.5006C15.3332 10.3055 15.6639 10.0057 15.8951 9.63466C16.1262 9.26366 16.2486 8.83614 16.2486 8.40001C16.2486 7.96387 16.1262 7.53635 15.8951 7.16535C15.6639 6.79435 15.3332 6.49451 14.94 6.29945ZM14.27 9.17129L3.5 14.5082C3.36802 14.5726 3.22172 14.6026 3.07485 14.5954C2.92797 14.5882 2.78535 14.5441 2.66037 14.4673C2.53539 14.3904 2.43216 14.2833 2.36038 14.156C2.2886 14.0286 2.25061 13.8853 2.25 13.7394V13.67C2.25124 13.5637 2.27244 13.4586 2.3125 13.36L4 9.14401H8.25V7.65601H4L2.3125 3.44001C2.27249 3.34141 2.2513 3.23629 2.25 3.13001V3.06057C2.25061 2.9147 2.2886 2.77137 2.36038 2.64406C2.43216 2.51675 2.53539 2.40963 2.66037 2.33276C2.78535 2.2559 2.92797 2.21181 3.07485 2.20464C3.22172 2.19746 3.36802 2.22745 3.5 2.29177L14.27 7.62873C14.4143 7.70013 14.5356 7.81001 14.6205 7.94603C14.7053 8.08205 14.7502 8.23883 14.7502 8.39877C14.7502 8.55871 14.7053 8.71549 14.6205 8.85151C14.5356 8.98753 14.4143 9.0974 14.27 9.16881V9.17129Z" fill="black"/>
</svg>
