<svg width="19" height="19" viewBox="0 0 19 19" fill="none" xmlns="http://www.w3.org/2000/svg">
<path d="M17.632 7.7184L16.473 7.392L15.979 6.1632L16.568 5.1072C16.834 4.6272 16.758 4.032 16.378 3.648L15.39 2.6496C15.01 2.2656 14.402 2.1888 13.946 2.4576L12.901 3.0528L11.685 2.5536L11.362 1.3824C11.21 0.863996 10.735 0.479996 10.203 0.479996H8.81601C8.28401 0.479996 7.79001 0.844796 7.65701 1.3824L7.33401 2.5536L6.11801 3.0528L5.07301 2.4576C4.59801 2.1888 4.00901 2.2656 3.62901 2.6496L2.62201 3.648C2.24201 4.032 2.16601 4.6464 2.43201 5.1072L3.02101 6.1632L2.52701 7.392L1.36801 7.7184C0.855006 7.872 0.475006 8.352 0.475006 8.8896V10.2912C0.475006 10.848 0.836006 11.328 1.36801 11.4624L2.52701 11.7888L3.02101 13.0176L2.43201 14.0736C2.16601 14.5536 2.24201 15.1488 2.62201 15.5328L3.61001 16.5312C3.99001 16.9152 4.59801 16.992 5.05401 16.7232L6.09901 16.128L7.31501 16.6272L7.63801 17.7984C7.79001 18.3168 8.26501 18.7008 8.79701 18.7008H10.184C10.716 18.7008 11.21 18.336 11.343 17.7984L11.666 16.6272L12.882 16.128L13.927 16.7232C14.402 16.992 14.991 16.9152 15.371 16.5312L16.359 15.5328C16.739 15.1488 16.815 14.5536 16.549 14.0736L15.96 13.0176L16.454 11.7888L17.613 11.4624C18.126 11.3088 18.506 10.8288 18.506 10.2912V8.8896C18.525 8.352 18.164 7.872 17.632 7.7184ZM17.499 10.3104C17.499 10.3872 17.442 10.4832 17.366 10.5024L15.732 10.944L14.858 13.0944L15.694 14.592C15.732 14.6688 15.732 14.7648 15.656 14.8224L14.668 15.8208C14.611 15.8784 14.516 15.8976 14.44 15.8592L12.958 15.0144L10.83 15.8976L10.374 17.5488C10.355 17.6256 10.279 17.6832 10.184 17.6832H8.79701C8.72101 17.6832 8.64501 17.6256 8.60701 17.5488L8.17001 15.8976L6.04201 15.0144L4.56001 15.8592C4.48401 15.8976 4.38901 15.8976 4.33201 15.8208L3.34401 14.8224C3.28701 14.7648 3.26801 14.6688 3.30601 14.592L4.14201 13.0944L3.26801 10.944L1.63401 10.4832C1.55801 10.464 1.50101 10.3872 1.50101 10.2912V8.8896C1.50101 8.7936 1.55801 8.736 1.63401 8.6976L3.26801 8.2368L4.14201 6.0864L3.30601 4.608C3.26801 4.5312 3.26801 4.4352 3.34401 4.3776L4.33201 3.3792C4.38901 3.3216 4.48401 3.3024 4.56001 3.3408L6.04201 4.1856L8.17001 3.3024L8.62601 1.6512C8.64501 1.5744 8.72101 1.5168 8.81601 1.5168H10.203C10.279 1.5168 10.355 1.5744 10.393 1.6512L10.849 3.3024L12.977 4.2048L14.459 3.36C14.535 3.3216 14.63 3.3216 14.687 3.3984L15.675 4.3968C15.732 4.4544 15.751 4.5504 15.713 4.6272L14.877 6.1248L15.732 8.256L17.366 8.7168C17.442 8.736 17.499 8.8128 17.499 8.9088V10.3104Z" fill="black"/>
<path d="M9.5 6.144C7.619 6.144 6.08 7.6992 6.08 9.6C6.08 11.5008 7.619 13.056 9.5 13.056C11.381 13.056 12.92 11.5008 12.92 9.6C12.92 7.6992 11.381 6.144 9.5 6.144ZM9.5 12.0192C8.17 12.0192 7.106 10.9248 7.106 9.6C7.106 8.256 8.189 7.1808 9.5 7.1808C10.811 7.1808 11.894 8.256 11.894 9.6C11.894 10.944 10.83 12.0192 9.5 12.0192Z" fill="black"/>
</svg>
